<svg version="1.1" id="Layer_1" xmlns="http://www.w3.org/2000/svg" xmlns:xlink="http://www.w3.org/1999/xlink" x="0px" y="0px"
	 width="100%" viewBox="0 0 512 512" enable-background="new 0 0 512 512" xml:space="preserve">
<path fill="#030303" opacity="1.000000" stroke="none" 
	d="
M513.000000,413.000000 
	C513.000000,418.688904 513.000000,424.377808 512.627075,430.658966 
	C510.013458,445.529785 497.410095,458.448059 484.188080,461.960327 
	C470.097260,465.703369 455.649323,463.465607 441.364838,463.987457 
	C437.955353,464.112030 434.537415,464.005920 431.000000,464.005920 
	C431.000000,480.775574 431.000000,496.887787 431.000000,513.000000 
	C287.712036,513.000000 144.424057,513.000000 1.068048,513.000000 
	C1.068048,342.432739 1.068048,171.865448 1.068048,1.000000 
	C144.021881,1.000000 287.043945,1.000000 430.535797,1.468650 
	C431.005554,78.527710 431.005554,155.118118 431.005554,231.994049 
	C441.144958,231.994049 450.804779,231.571182 460.403595,232.153488 
	C466.113831,232.499878 469.004791,230.042953 472.133759,225.804031 
	C479.761597,215.470474 487.934082,205.534790 496.064789,195.583954 
	C496.761780,194.730942 499.292511,194.232224 500.095856,194.802475 
	C504.208832,197.721909 508.034668,201.045883 512.078430,204.323746 
	C505.763367,212.026978 499.699463,219.664124 493.358429,227.063766 
	C489.854065,231.153214 488.851868,235.539825 488.882843,240.908295 
	C489.110718,280.399445 489.005981,319.892517 489.005951,359.385010 
	C489.005951,361.160858 489.005920,362.936737 489.005920,365.101807 
	C469.443756,365.101807 450.370667,365.101807 431.260559,365.101807 
	C431.260559,370.241547 431.260559,374.978790 431.260559,380.993805 
	C446.229828,380.993805 460.946564,380.887146 475.660828,381.031158 
	C485.550873,381.127930 493.550781,385.673035 500.736877,392.163727 
	C507.051819,397.867645 509.725006,405.579773 513.000000,413.000000 
M380.910248,421.132416 
	C380.910248,418.857910 380.910248,416.583405 380.910248,413.778687 
	C386.650330,413.778687 391.886505,413.778687 397.076050,413.778687 
	C397.076050,408.107269 397.076050,402.979370 397.076050,397.582031 
	C336.630798,397.582031 276.411285,397.582031 216.095032,397.582031 
	C216.095032,403.120056 216.095032,408.358582 216.095032,414.083130 
	C265.617584,414.083130 314.848114,414.083130 364.044189,414.083130 
	C364.226562,417.059692 364.378815,419.544586 364.308533,422.925232 
	C364.308533,425.212708 364.308533,427.500183 364.308533,430.328369 
	C314.614746,430.328369 265.435333,430.328369 216.074249,430.328369 
	C216.074249,436.108856 216.074249,441.339233 216.074249,446.716156 
	C276.523529,446.716156 336.700928,446.716156 396.980865,446.716156 
	C396.980865,441.228729 396.980865,436.004974 396.980865,430.143463 
	C391.470825,430.143463 386.258209,430.143463 381.096405,430.143463 
	C380.957916,427.014893 380.847839,424.527588 380.910248,421.132416 
M255.124893,463.623749 
	C246.460480,463.548462 237.770157,463.013153 229.137405,463.499725 
	C214.107224,464.346893 199.636292,462.796814 185.998444,455.992432 
	C185.143845,455.566040 184.157272,455.404144 182.720642,454.961700 
	C182.720642,463.409302 182.720642,471.498230 182.720642,479.647614 
	C132.901886,479.647614 83.530457,479.647614 34.330093,479.647614 
	C34.330093,435.556732 34.330093,391.810944 34.330093,348.199402 
	C83.905075,348.199402 133.157364,348.199402 182.774994,348.199402 
	C182.774994,361.934082 182.774994,375.378387 182.774994,389.398285 
	C186.525436,388.070557 189.904388,387.194855 192.996384,385.718231 
	C201.460754,381.675781 210.287369,380.772095 219.607178,380.805573 
	C282.433960,381.031250 345.261963,380.923157 408.089569,380.923157 
	C410.002350,380.923157 411.915161,380.923157 413.731934,380.923157 
	C413.731934,375.030884 413.731934,369.907166 413.731934,364.205414 
	C388.972107,364.205414 364.417053,364.205414 339.948914,364.205414 
	C339.948914,319.892059 339.948914,276.163025 339.948914,232.014206 
	C364.775635,232.014206 389.189636,232.014206 413.671692,232.014206 
	C413.671692,160.346573 413.671692,89.101608 413.671692,17.986568 
	C281.520844,17.986568 149.643448,17.986568 17.920582,17.986568 
	C17.920582,177.633759 17.920582,336.867676 17.920582,496.199860 
	C18.899418,496.294281 19.544174,496.410919 20.188938,496.410950 
	C150.177063,496.421417 280.165192,496.427429 410.153290,496.369202 
	C411.365997,496.368652 412.578308,495.508362 413.947479,494.117798 
	C413.947479,484.023865 413.947479,473.929962 413.947479,463.598206 
	C412.147980,463.501892 410.850403,463.371948 409.552826,463.371674 
	C359.649902,463.361359 309.747009,463.359497 259.844086,463.381714 
	C258.544434,463.382294 257.244904,463.662994 255.124893,463.623749 
M166.084778,384.472046 
	C166.084778,377.873016 166.084778,371.273987 166.084778,364.661194 
	C127.316292,364.661194 89.151573,364.661194 51.049713,364.661194 
	C51.049713,397.748566 51.049713,430.437195 51.049713,463.102295 
	C89.519615,463.102295 127.577065,463.102295 166.084747,463.102295 
	C166.084747,459.562805 165.854294,456.247406 166.148926,452.979340 
	C166.449600,449.644287 165.408417,447.991272 162.066452,446.891693 
	C155.930161,444.872742 149.842041,442.553314 144.027252,439.750427 
	C136.771744,436.253113 133.210358,429.777161 133.276184,421.971527 
	C133.340210,414.381470 136.886414,408.155212 143.932266,404.628571 
	C147.924789,402.630219 152.155212,401.087006 156.335632,399.488190 
	C166.070709,395.765045 166.084732,395.801727 166.084778,384.472046 
M356.054321,253.631821 
	C356.054321,284.902618 356.054321,316.173401 356.054321,347.619019 
	C394.779083,347.619019 432.993652,347.619019 471.377869,347.619019 
	C471.377869,316.670197 471.377869,286.006836 471.377869,254.182098 
	C449.305328,281.753510 427.935425,308.447296 406.794678,334.854797 
	C396.286285,324.360138 386.075775,314.162964 375.998657,304.098999 
	C379.446991,300.593689 383.135529,296.844208 387.695099,292.209290 
	C393.401520,298.157837 399.208710,304.211426 405.176361,310.432281 
	C421.603455,289.885468 437.742554,269.698853 454.414124,248.846268 
	C421.839203,248.846268 390.364990,248.883148 358.891144,248.790604 
	C355.660706,248.781113 356.005310,250.652298 356.054321,253.631821 
M496.022095,418.018280 
	C493.972931,407.753906 487.973145,400.097046 477.828674,398.546509 
	C467.835968,397.019196 457.427338,398.213196 447.244690,398.213196 
	C447.244690,414.195679 447.244690,430.431152 447.244690,446.961670 
	C455.306244,446.961670 463.099335,447.076294 470.887939,446.937714 
	C486.935181,446.652222 497.315033,435.034943 496.022095,418.018280 
M199.101242,409.571350 
	C199.101242,407.007385 199.101242,404.443390 199.101242,401.084351 
	C182.958420,407.157104 167.728333,412.836365 152.566437,418.692169 
	C151.439835,419.127319 150.044266,420.889954 150.126999,421.927582 
	C150.233887,423.268341 151.423309,425.108154 152.637726,425.668365 
	C156.702988,427.543549 160.983505,428.953857 165.187775,430.525604 
	C176.332886,434.692261 187.481262,438.850220 199.101303,443.188202 
	C199.101303,431.850067 199.101303,421.200653 199.101242,409.571350 
M430.319305,419.500122 
	C430.319305,412.245667 430.319305,404.991180 430.319305,397.552826 
	C424.579193,397.552826 419.506622,397.552826 414.335999,397.552826 
	C414.335999,414.138367 414.335999,430.462616 414.335999,446.666077 
	C419.813690,446.666077 424.903473,446.666077 430.319458,446.666077 
	C430.319458,437.748566 430.319458,429.124329 430.319305,419.500122 
z"/>
<path fill="#FFFFFF" opacity="1.000000" stroke="none" 
	d="
M513.000000,412.531342 
	C509.725006,405.579773 507.051819,397.867645 500.736877,392.163727 
	C493.550781,385.673035 485.550873,381.127930 475.660828,381.031158 
	C460.946564,380.887146 446.229828,380.993805 431.260559,380.993805 
	C431.260559,374.978790 431.260559,370.241547 431.260559,365.101807 
	C450.370667,365.101807 469.443756,365.101807 489.005920,365.101807 
	C489.005920,362.936737 489.005951,361.160858 489.005951,359.385010 
	C489.005981,319.892517 489.110718,280.399445 488.882843,240.908295 
	C488.851868,235.539825 489.854065,231.153214 493.358429,227.063766 
	C499.699463,219.664124 505.763367,212.026978 512.078430,204.323746 
	C508.034668,201.045883 504.208832,197.721909 500.095856,194.802475 
	C499.292511,194.232224 496.761780,194.730942 496.064789,195.583954 
	C487.934082,205.534790 479.761597,215.470474 472.133759,225.804031 
	C469.004791,230.042953 466.113831,232.499878 460.403595,232.153488 
	C450.804779,231.571182 441.144958,231.994049 431.005554,231.994049 
	C431.005554,155.118118 431.005554,78.527710 431.002777,1.468650 
	C458.309113,1.000000 485.618195,1.000000 513.000000,1.000000 
	C513.000000,138.020889 513.000000,275.041779 513.000000,412.531342 
z"/>
<path fill="#FFFFFF" opacity="1.000000" stroke="none" 
	d="
M431.468658,513.000000 
	C431.000000,496.887787 431.000000,480.775574 431.000000,464.005920 
	C434.537415,464.005920 437.955353,464.112030 441.364838,463.987457 
	C455.649323,463.465607 470.097260,465.703369 484.188080,461.960327 
	C497.410095,458.448059 510.013458,445.529785 512.627075,431.125610 
	C513.000000,458.260223 513.000000,485.520477 513.000000,513.000000 
	C485.979492,513.000000 458.958405,513.000000 431.468658,513.000000 
z"/>
<path fill="#EBEBEB" opacity="1.000000" stroke="none" 
	d="
M413.790802,495.049438 
	C412.578308,495.508362 411.365997,496.368652 410.153290,496.369202 
	C280.165192,496.427429 150.177063,496.421417 20.188938,496.410950 
	C19.544174,496.410919 18.899418,496.294281 17.920582,496.199860 
	C17.920582,336.867676 17.920582,177.633759 17.920582,17.986568 
	C149.643448,17.986568 281.520844,17.986568 413.671692,17.986568 
	C413.671692,89.101608 413.671692,160.346573 413.671692,232.014206 
	C389.189636,232.014206 364.775635,232.014206 339.948914,232.014206 
	C339.948914,276.163025 339.948914,319.892059 339.948914,364.205414 
	C364.417053,364.205414 388.972107,364.205414 413.731934,364.205414 
	C413.731934,369.907166 413.731934,375.030884 413.731934,380.923157 
	C411.915161,380.923157 410.002350,380.923157 408.089569,380.923157 
	C345.261963,380.923157 282.433960,381.031250 219.607178,380.805573 
	C210.287369,380.772095 201.460754,381.675781 192.996384,385.718231 
	C189.904388,387.194855 186.525436,388.070557 182.774994,389.398285 
	C182.774994,375.378387 182.774994,361.934082 182.774994,348.199402 
	C133.157364,348.199402 83.905075,348.199402 34.330093,348.199402 
	C34.330093,391.810944 34.330093,435.556732 34.330093,479.647614 
	C83.530457,479.647614 132.901886,479.647614 182.720642,479.647614 
	C182.720642,471.498230 182.720642,463.409302 182.720642,454.961700 
	C184.157272,455.404144 185.143845,455.566040 185.998444,455.992432 
	C199.636292,462.796814 214.107224,464.346893 229.137405,463.499725 
	C237.770157,463.013153 246.460480,463.548462 255.777344,464.027771 
	C263.082794,465.714661 269.736450,466.994110 276.388641,468.281067 
	C306.934235,474.190399 337.483002,480.083344 368.023193,486.020386 
	C383.287292,488.987793 398.535431,492.037170 413.790802,495.049438 
M164.477600,34.027267 
	C160.330017,34.342220 156.163055,34.497253 152.037872,34.997086 
	C114.604469,39.532742 81.889099,70.034393 77.200371,107.439224 
	C74.669991,127.625618 75.262039,148.313919 75.812218,168.738968 
	C76.211060,183.545868 85.296036,192.996490 99.199890,197.906876 
	C100.729485,198.447067 102.439438,200.158218 102.932739,201.690918 
	C107.862518,217.007812 116.908165,229.120499 130.313293,238.021774 
	C131.502594,238.811462 132.386124,240.061600 134.065887,241.758987 
	C119.577278,244.664383 106.277817,247.625290 92.868042,249.949829 
	C73.856995,253.245300 57.089882,261.152130 48.706013,278.876923 
	C40.975906,295.219635 36.582268,313.140472 30.499573,331.010834 
	C121.433418,331.010834 210.856567,331.010834 300.900665,331.010834 
	C297.019226,317.556091 293.526672,304.260773 289.334747,291.189819 
	C282.608734,270.217133 268.409241,256.780365 246.882599,251.751099 
	C232.805969,248.462387 218.558731,245.905029 204.393082,242.994904 
	C202.564743,242.619293 200.767548,242.092239 198.997986,241.645950 
	C199.248871,240.639740 199.225143,240.213028 199.425430,240.025452 
	C200.145905,239.350601 200.892609,238.680710 201.716888,238.143127 
	C215.351440,229.250824 224.517929,217.046356 229.421021,201.500534 
	C229.926208,199.898819 232.033463,198.257843 233.751511,197.669601 
	C247.055222,193.114639 256.536804,181.918808 256.772278,168.065857 
	C257.213928,142.083817 257.213440,116.083672 256.775757,90.101524 
	C256.542114,76.231796 247.126358,64.154343 233.873795,60.586903 
	C227.826492,58.959034 223.016205,56.036888 218.233261,52.452850 
	C202.595001,40.734528 185.005066,34.526646 164.477600,34.027267 
M341.500000,34.000637 
	C318.942719,34.000637 296.385437,34.000637 273.894775,34.000637 
	C273.894775,39.888847 273.894775,45.128525 273.894775,50.355141 
	C315.137756,50.355141 356.015137,50.355141 397.107605,50.355141 
	C397.107605,44.810364 397.107605,39.544231 397.107605,34.000637 
	C378.766724,34.000637 360.633362,34.000637 341.500000,34.000637 
M322.500000,67.020149 
	C306.273315,67.020149 290.046631,67.020149 273.894684,67.020149 
	C273.894684,72.950600 273.894684,78.195343 273.894684,83.396225 
	C315.142334,83.396225 356.024353,83.396225 397.103821,83.396225 
	C397.103821,77.840355 397.103821,72.571068 397.103821,67.020149 
	C372.423157,67.020149 347.961578,67.020149 322.500000,67.020149 
M397.105469,133.691864 
	C395.835846,133.480484 394.566345,133.085480 393.296539,133.084412 
	C354.669128,133.051697 316.041656,133.056137 277.414215,133.065598 
	C276.280121,133.065872 275.146057,133.182388 273.937927,133.248779 
	C273.937927,138.818863 273.937927,144.188416 273.937927,149.420959 
	C315.228271,149.420959 356.109344,149.420959 397.293213,149.420959 
	C397.293213,144.276077 397.293213,139.463104 397.105469,133.691864 
M390.442505,100.037086 
	C351.575195,100.037086 312.707886,100.037086 273.878601,100.037086 
	C273.878601,105.965340 273.878601,111.214508 273.878601,116.440933 
	C315.121552,116.440933 356.014923,116.440933 397.064819,116.440933 
	C397.064819,110.917183 397.064819,105.675629 397.064819,100.037086 
	C395.019257,100.037086 393.222504,100.037086 390.442505,100.037086 
M368.500000,199.098282 
	C336.957550,199.098282 305.415100,199.098282 273.851318,199.098282 
	C273.851318,205.048553 273.851318,210.305771 273.851318,215.560425 
	C315.070740,215.560425 355.967987,215.560425 397.079956,215.560425 
	C397.079956,210.055328 397.079956,204.811310 397.079956,199.098282 
	C387.732574,199.098282 378.616302,199.098282 368.500000,199.098282 
M308.499908,182.791901 
	C326.926147,182.791901 345.352386,182.791901 364.025635,182.791901 
	C364.025635,177.065704 364.025635,171.824448 364.025635,166.385406 
	C333.884857,166.385406 303.897980,166.385406 273.833923,166.385406 
	C273.833923,171.949310 273.833923,177.201828 273.833923,182.791901 
	C285.256378,182.791901 296.378113,182.791901 308.499908,182.791901 
M396.305573,166.142593 
	C391.237823,166.142593 386.170105,166.142593 381.202209,166.142593 
	C381.202209,171.962631 381.202209,177.189987 381.202209,182.425385 
	C386.676849,182.425385 391.856964,182.425385 397.086945,182.425385 
	C397.086945,176.945816 397.086945,171.831894 396.305573,166.142593 
z"/>
<path fill="#39C2FB" opacity="1.000000" stroke="none" 
	d="
M166.084778,384.966187 
	C166.084732,395.801727 166.070709,395.765045 156.335632,399.488190 
	C152.155212,401.087006 147.924789,402.630219 143.932266,404.628571 
	C136.886414,408.155212 133.340210,414.381470 133.276184,421.971527 
	C133.210358,429.777161 136.771744,436.253113 144.027252,439.750427 
	C149.842041,442.553314 155.930161,444.872742 162.066452,446.891693 
	C165.408417,447.991272 166.449600,449.644287 166.148926,452.979340 
	C165.854294,456.247406 166.084747,459.562805 166.084747,463.102295 
	C127.577065,463.102295 89.519615,463.102295 51.049713,463.102295 
	C51.049713,430.437195 51.049713,397.748566 51.049713,364.661194 
	C89.151573,364.661194 127.316292,364.661194 166.084778,364.661194 
	C166.084778,371.273987 166.084778,377.873016 166.084778,384.966187 
z"/>
<path fill="#38C1F9" opacity="1.000000" stroke="none" 
	d="
M356.054382,253.147858 
	C356.005310,250.652298 355.660706,248.781113 358.891144,248.790604 
	C390.364990,248.883148 421.839203,248.846268 454.414124,248.846268 
	C437.742554,269.698853 421.603455,289.885468 405.176361,310.432281 
	C399.208710,304.211426 393.401520,298.157837 387.695099,292.209290 
	C383.135529,296.844208 379.446991,300.593689 375.998657,304.098999 
	C386.075775,314.162964 396.286285,324.360138 406.794678,334.854797 
	C427.935425,308.447296 449.305328,281.753510 471.377869,254.182098 
	C471.377869,286.006836 471.377869,316.670197 471.377869,347.619019 
	C432.993652,347.619019 394.779083,347.619019 356.054321,347.619019 
	C356.054321,316.173401 356.054321,284.902618 356.054382,253.147858 
z"/>
<path fill="#F8C228" opacity="1.000000" stroke="none" 
	d="
M380.737732,422.040283 
	C380.847839,424.527588 380.957916,427.014893 381.096405,430.143463 
	C386.258209,430.143463 391.470825,430.143463 396.980865,430.143463 
	C396.980865,436.004974 396.980865,441.228729 396.980865,446.716156 
	C336.700928,446.716156 276.523529,446.716156 216.074249,446.716156 
	C216.074249,441.339233 216.074249,436.108856 216.074249,430.328369 
	C265.435333,430.328369 314.614746,430.328369 364.308533,430.328369 
	C364.308533,427.500183 364.308533,425.212708 364.851196,422.473022 
	C370.508453,422.027283 375.623108,422.033783 380.737732,422.040283 
z"/>
<path fill="#F5D16D" opacity="1.000000" stroke="none" 
	d="
M380.823975,421.586365 
	C375.623108,422.033783 370.508453,422.027283 364.962463,422.025146 
	C364.378815,419.544586 364.226562,417.059692 364.044189,414.083130 
	C314.848114,414.083130 265.617584,414.083130 216.095032,414.083130 
	C216.095032,408.358582 216.095032,403.120056 216.095032,397.582031 
	C276.411285,397.582031 336.630798,397.582031 397.076050,397.582031 
	C397.076050,402.979370 397.076050,408.107269 397.076050,413.778687 
	C391.886505,413.778687 386.650330,413.778687 380.910248,413.778687 
	C380.910248,416.583405 380.910248,418.857910 380.823975,421.586365 
z"/>
<path fill="#B0BBC7" opacity="1.000000" stroke="none" 
	d="
M413.869141,494.583618 
	C398.535431,492.037170 383.287292,488.987793 368.023193,486.020386 
	C337.483002,480.083344 306.934235,474.190399 276.388641,468.281067 
	C269.736450,466.994110 263.082794,465.714661 256.187561,464.122437 
	C257.244904,463.662994 258.544434,463.382294 259.844086,463.381714 
	C309.747009,463.359497 359.649902,463.361359 409.552826,463.371674 
	C410.850403,463.371948 412.147980,463.501892 413.947479,463.598206 
	C413.947479,473.929962 413.947479,484.023865 413.869141,494.583618 
z"/>
<path fill="#EAEAEA" opacity="1.000000" stroke="none" 
	d="
M496.050720,418.461792 
	C497.315033,435.034943 486.935181,446.652222 470.887939,446.937714 
	C463.099335,447.076294 455.306244,446.961670 447.244690,446.961670 
	C447.244690,430.431152 447.244690,414.195679 447.244690,398.213196 
	C457.427338,398.213196 467.835968,397.019196 477.828674,398.546509 
	C487.973145,400.097046 493.972931,407.753906 496.050720,418.461792 
z"/>
<path fill="#8A93A2" opacity="1.000000" stroke="none" 
	d="
M199.101273,410.061279 
	C199.101303,421.200653 199.101303,431.850067 199.101303,443.188202 
	C187.481262,438.850220 176.332886,434.692261 165.187775,430.525604 
	C160.983505,428.953857 156.702988,427.543549 152.637726,425.668365 
	C151.423309,425.108154 150.233887,423.268341 150.126999,421.927582 
	C150.044266,420.889954 151.439835,419.127319 152.566437,418.692169 
	C167.728333,412.836365 182.958420,407.157104 199.101242,401.084351 
	C199.101242,404.443390 199.101242,407.007385 199.101273,410.061279 
z"/>
<path fill="#FCA72F" opacity="1.000000" stroke="none" 
	d="
M430.319397,420.000122 
	C430.319458,429.124329 430.319458,437.748566 430.319458,446.666077 
	C424.903473,446.666077 419.813690,446.666077 414.335999,446.666077 
	C414.335999,430.462616 414.335999,414.138367 414.335999,397.552826 
	C419.506622,397.552826 424.579193,397.552826 430.319305,397.552826 
	C430.319305,404.991180 430.319305,412.245667 430.319397,420.000122 
z"/>
<path fill="#030202" opacity="1.000000" stroke="none" 
	d="
M164.955963,34.035255 
	C185.005066,34.526646 202.595001,40.734528 218.233261,52.452850 
	C223.016205,56.036888 227.826492,58.959034 233.873795,60.586903 
	C247.126358,64.154343 256.542114,76.231796 256.775757,90.101524 
	C257.213440,116.083672 257.213928,142.083817 256.772278,168.065857 
	C256.536804,181.918808 247.055222,193.114639 233.751511,197.669601 
	C232.033463,198.257843 229.926208,199.898819 229.421021,201.500534 
	C224.517929,217.046356 215.351440,229.250824 201.716888,238.143127 
	C200.892609,238.680710 200.145905,239.350601 199.425430,240.025452 
	C199.225143,240.213028 199.248871,240.639740 198.997986,241.645950 
	C200.767548,242.092239 202.564743,242.619293 204.393082,242.994904 
	C218.558731,245.905029 232.805969,248.462387 246.882599,251.751099 
	C268.409241,256.780365 282.608734,270.217133 289.334747,291.189819 
	C293.526672,304.260773 297.019226,317.556091 300.900665,331.010834 
	C210.856567,331.010834 121.433418,331.010834 30.499573,331.010834 
	C36.582268,313.140472 40.975906,295.219635 48.706013,278.876923 
	C57.089882,261.152130 73.856995,253.245300 92.868042,249.949829 
	C106.277817,247.625290 119.577278,244.664383 134.065887,241.758987 
	C132.386124,240.061600 131.502594,238.811462 130.313293,238.021774 
	C116.908165,229.120499 107.862518,217.007812 102.932739,201.690918 
	C102.439438,200.158218 100.729485,198.447067 99.199890,197.906876 
	C85.296036,192.996490 76.211060,183.545868 75.812218,168.738968 
	C75.262039,148.313919 74.669991,127.625618 77.200371,107.439224 
	C81.889099,70.034393 114.604469,39.532742 152.037872,34.997086 
	C156.163055,34.497253 160.330017,34.342220 164.955963,34.035255 
M174.817322,231.292511 
	C194.062759,227.138168 207.176270,216.022751 213.231125,197.113663 
	C218.163895,181.708740 214.754242,165.882629 215.974808,149.986725 
	C209.861877,149.986725 204.432816,149.986725 198.085464,149.780685 
	C187.594955,149.770370 177.099930,149.561905 166.615112,149.801025 
	C154.135986,150.085648 142.328232,148.692581 133.869370,139.163239 
	C129.009872,142.037399 124.806648,145.019180 120.189850,147.069885 
	C117.376152,148.319687 116.606644,149.695694 116.653748,152.549149 
	C116.810402,162.038101 116.752739,171.531448 116.704704,181.022736 
	C116.618050,198.148499 123.140251,212.182098 136.921356,222.342117 
	C147.895432,230.432678 160.251083,234.078339 174.817322,231.292511 
M211.098328,261.294373 
	C210.720215,261.263947 210.342117,261.233490 209.191269,260.967468 
	C205.337799,260.186584 201.484329,259.405731 197.650070,258.628754 
	C191.702652,273.421356 181.246399,281.734955 165.844757,281.638672 
	C150.443329,281.542450 140.267441,272.777161 134.532211,258.538727 
	C120.806015,261.307678 107.509224,264.291168 94.100327,266.632660 
	C65.695396,271.592743 58.245480,290.656372 54.032742,314.669189 
	C67.161171,314.669189 80.251999,314.669189 93.607262,314.669189 
	C95.880646,305.777954 98.123955,297.004364 100.419769,288.025452 
	C105.959419,289.454285 111.033920,290.763153 116.296417,292.120483 
	C114.400589,299.916962 112.644676,307.138062 110.824745,314.622437 
	C147.830948,314.622437 184.377182,314.622437 221.497116,314.622437 
	C219.649109,306.931152 217.888412,299.603210 216.064011,292.010071 
	C221.586945,290.650665 226.652435,289.403839 231.971558,288.094604 
	C233.749374,295.196320 235.869156,301.721649 236.911758,308.414734 
	C237.822678,314.262604 240.600082,315.975128 246.887039,314.886475 
	C257.457397,314.886475 268.027771,314.886475 279.173462,314.886475 
	C276.960114,307.475616 275.208466,300.722168 272.923798,294.154144 
	C268.738770,282.123047 260.651245,273.132782 248.536163,269.511292 
	C236.656448,265.960236 224.201340,264.334167 211.772766,261.671692 
	C211.772766,261.671692 211.482498,261.730927 211.098328,261.294373 
M181.407532,52.952728 
	C132.354752,40.541157 84.096260,81.364510 92.581573,136.161209 
	C98.228050,135.105728 103.931160,134.254013 109.516479,132.912033 
	C112.666672,132.155151 116.396828,131.348663 118.486748,129.214264 
	C121.695892,125.936836 123.717262,121.496361 126.534637,117.093079 
	C130.743637,117.093079 135.973816,117.093079 141.096985,117.093079 
	C144.139984,129.200500 149.122787,132.648651 161.323502,133.143127 
	C187.561707,134.206497 214.030609,129.961090 240.196274,136.246262 
	C240.196274,120.988525 240.454742,105.506165 240.087357,90.038681 
	C239.903275,82.289299 234.038361,77.172928 225.997192,75.459023 
	C222.442047,74.701279 218.730820,73.256950 215.825836,71.123131 
	C205.449738,63.501530 195.024429,56.124420 181.407532,52.952728 
M172.634903,248.198685 
	C165.110031,248.198685 157.585159,248.198685 150.006180,248.198685 
	C149.568329,257.915802 156.596451,265.374329 166.761292,265.116150 
	C176.267395,264.874756 183.053772,257.070007 182.262360,246.857101 
	C179.333939,247.287155 176.427460,247.713974 172.634903,248.198685 
M232.898117,179.596146 
	C238.641266,176.160828 240.733658,170.912781 240.164200,164.494659 
	C239.709839,159.373611 237.489288,155.301910 232.202682,152.499481 
	C232.202682,161.846191 232.202682,170.548996 232.898117,179.596146 
M100.057777,166.492889 
	C100.057777,161.976151 100.057777,157.459427 100.057777,152.173126 
	C93.966446,156.329178 91.541679,161.246109 92.045624,167.462799 
	C92.474098,172.748367 94.784912,176.993607 100.057777,179.881943 
	C100.057777,175.376755 100.057777,171.427872 100.057777,166.492889 
z"/>
<path fill="#060606" opacity="1.000000" stroke="none" 
	d="
M342.000000,34.000637 
	C360.633362,34.000637 378.766724,34.000637 397.107605,34.000637 
	C397.107605,39.544231 397.107605,44.810364 397.107605,50.355141 
	C356.015137,50.355141 315.137756,50.355141 273.894775,50.355141 
	C273.894775,45.128525 273.894775,39.888847 273.894775,34.000637 
	C296.385437,34.000637 318.942719,34.000637 342.000000,34.000637 
z"/>
<path fill="#060606" opacity="1.000000" stroke="none" 
	d="
M323.000000,67.020149 
	C347.961578,67.020149 372.423157,67.020149 397.103821,67.020149 
	C397.103821,72.571068 397.103821,77.840355 397.103821,83.396225 
	C356.024353,83.396225 315.142334,83.396225 273.894684,83.396225 
	C273.894684,78.195343 273.894684,72.950600 273.894684,67.020149 
	C290.046631,67.020149 306.273315,67.020149 323.000000,67.020149 
z"/>
<path fill="#060606" opacity="1.000000" stroke="none" 
	d="
M397.199341,134.170990 
	C397.293213,139.463104 397.293213,144.276077 397.293213,149.420959 
	C356.109344,149.420959 315.228271,149.420959 273.937927,149.420959 
	C273.937927,144.188416 273.937927,138.818863 273.937927,133.248779 
	C275.146057,133.182388 276.280121,133.065872 277.414215,133.065598 
	C316.041656,133.056137 354.669128,133.051697 393.296539,133.084412 
	C394.566345,133.085480 395.835846,133.480484 397.199341,134.170990 
z"/>
<path fill="#060606" opacity="1.000000" stroke="none" 
	d="
M390.934143,100.037086 
	C393.222504,100.037086 395.019257,100.037086 397.064819,100.037086 
	C397.064819,105.675629 397.064819,110.917183 397.064819,116.440933 
	C356.014923,116.440933 315.121552,116.440933 273.878601,116.440933 
	C273.878601,111.214508 273.878601,105.965340 273.878601,100.037086 
	C312.707886,100.037086 351.575195,100.037086 390.934143,100.037086 
z"/>
<path fill="#060606" opacity="1.000000" stroke="none" 
	d="
M369.000000,199.098282 
	C378.616302,199.098282 387.732574,199.098282 397.079956,199.098282 
	C397.079956,204.811310 397.079956,210.055328 397.079956,215.560425 
	C355.967987,215.560425 315.070740,215.560425 273.851318,215.560425 
	C273.851318,210.305771 273.851318,205.048553 273.851318,199.098282 
	C305.415100,199.098282 336.957550,199.098282 369.000000,199.098282 
z"/>
<path fill="#060606" opacity="1.000000" stroke="none" 
	d="
M307.999878,182.791901 
	C296.378113,182.791901 285.256378,182.791901 273.833923,182.791901 
	C273.833923,177.201828 273.833923,171.949310 273.833923,166.385406 
	C303.897980,166.385406 333.884857,166.385406 364.025635,166.385406 
	C364.025635,171.824448 364.025635,177.065704 364.025635,182.791901 
	C345.352386,182.791901 326.926147,182.791901 307.999878,182.791901 
z"/>
<path fill="#060606" opacity="1.000000" stroke="none" 
	d="
M396.696259,166.430283 
	C397.086945,171.831894 397.086945,176.945816 397.086945,182.425385 
	C391.856964,182.425385 386.676849,182.425385 381.202209,182.425385 
	C381.202209,177.189987 381.202209,171.962631 381.202209,166.142593 
	C386.170105,166.142593 391.237823,166.142593 396.696259,166.430283 
z"/>
<path fill="#D29F6C" opacity="1.000000" stroke="none" 
	d="
M181.813568,53.020073 
	C195.024429,56.124420 205.449738,63.501530 215.825836,71.123131 
	C218.730820,73.256950 222.442047,74.701279 225.997192,75.459023 
	C234.038361,77.172928 239.903275,82.289299 240.087357,90.038681 
	C240.454742,105.506165 240.196274,120.988525 240.196274,136.246262 
	C214.030609,129.961090 187.561707,134.206497 161.323502,133.143127 
	C149.122787,132.648651 144.139984,129.200500 141.096985,117.093079 
	C135.973816,117.093079 130.743637,117.093079 126.534637,117.093079 
	C123.717262,121.496361 121.695892,125.936836 118.486748,129.214264 
	C116.396828,131.348663 112.666672,132.155151 109.516479,132.912033 
	C103.931160,134.254013 98.228050,135.105728 92.581573,136.161209 
	C84.096260,81.364510 132.354752,40.541157 181.813568,53.020073 
z"/>
<path fill="#F95867" opacity="1.000000" stroke="none" 
	d="
M245.957489,314.733093 
	C240.600082,315.975128 237.822678,314.262604 236.911758,308.414734 
	C235.869156,301.721649 233.749374,295.196320 231.971558,288.094604 
	C226.652435,289.403839 221.586945,290.650665 216.064011,292.010071 
	C217.888412,299.603210 219.649109,306.931152 221.497116,314.622437 
	C184.377182,314.622437 147.830948,314.622437 110.824745,314.622437 
	C112.644676,307.138062 114.400589,299.916962 116.296417,292.120483 
	C111.033920,290.763153 105.959419,289.454285 100.419769,288.025452 
	C98.123955,297.004364 95.880646,305.777954 93.607262,314.669189 
	C80.251999,314.669189 67.161171,314.669189 54.032742,314.669189 
	C58.245480,290.656372 65.695396,271.592743 94.100327,266.632660 
	C107.509224,264.291168 120.806015,261.307678 134.532211,258.538727 
	C140.267441,272.777161 150.443329,281.542450 165.844757,281.638672 
	C181.246399,281.734955 191.702652,273.421356 197.650070,258.628754 
	C201.484329,259.405731 205.337799,260.186584 209.774445,261.299561 
	C210.732574,261.664734 211.107544,261.697845 211.482498,261.730927 
	C211.482498,261.730927 211.772766,261.671692 211.910553,262.117767 
	C220.786316,271.297760 230.374680,279.417633 235.985855,290.677032 
	C239.848251,298.427338 242.670410,306.696075 245.957489,314.733093 
z"/>
<path fill="#F8DFA6" opacity="1.000000" stroke="none" 
	d="
M174.003281,231.163895 
	C160.251083,234.078339 147.895432,230.432678 136.921356,222.342117 
	C123.140251,212.182098 116.618050,198.148499 116.704704,181.022736 
	C116.752739,171.531448 116.810402,162.038101 116.653748,152.549149 
	C116.606644,149.695694 117.376152,148.319687 120.189850,147.069885 
	C124.806648,145.019180 129.009872,142.037399 133.869370,139.163239 
	C142.328232,148.692581 154.135986,150.085648 166.615112,149.801025 
	C177.099930,149.561905 187.594955,149.770370 198.548157,150.353226 
	C199.009979,161.705322 199.092270,172.485672 198.988327,183.264221 
	C198.839493,198.697525 193.193100,211.916183 182.496887,222.980728 
	C179.766113,225.805527 176.839767,228.441284 174.003281,231.163895 
z"/>
<path fill="#CB2C59" opacity="1.000000" stroke="none" 
	d="
M246.422272,314.809784 
	C242.670410,306.696075 239.848251,298.427338 235.985855,290.677032 
	C230.374680,279.417633 220.786316,271.297760 212.023560,262.213562 
	C224.201340,264.334167 236.656448,265.960236 248.536163,269.511292 
	C260.651245,273.132782 268.738770,282.123047 272.923798,294.154144 
	C275.208466,300.722168 276.960114,307.475616 279.173462,314.886475 
	C268.027771,314.886475 257.457397,314.886475 246.422272,314.809784 
z"/>
<path fill="#E7BB8A" opacity="1.000000" stroke="none" 
	d="
M174.410309,231.228210 
	C176.839767,228.441284 179.766113,225.805527 182.496887,222.980728 
	C193.193100,211.916183 198.839493,198.697525 198.988327,183.264221 
	C199.092270,172.485672 199.009979,161.705322 199.007324,150.456238 
	C204.432816,149.986725 209.861877,149.986725 215.974808,149.986725 
	C214.754242,165.882629 218.163895,181.708740 213.231125,197.113663 
	C207.176270,216.022751 194.062759,227.138168 174.410309,231.228210 
z"/>
<path fill="#F3DBA2" opacity="1.000000" stroke="none" 
	d="
M173.077942,248.169739 
	C176.427460,247.713974 179.333939,247.287155 182.262360,246.857101 
	C183.053772,257.070007 176.267395,264.874756 166.761292,265.116150 
	C156.596451,265.374329 149.568329,257.915802 150.006180,248.198685 
	C157.585159,248.198685 165.110031,248.198685 173.077942,248.169739 
z"/>
<path fill="#EBD49D" opacity="1.000000" stroke="none" 
	d="
M232.550400,179.423965 
	C232.202682,170.548996 232.202682,161.846191 232.202682,152.499481 
	C237.489288,155.301910 239.709839,159.373611 240.164200,164.494659 
	C240.733658,170.912781 238.641266,176.160828 232.550400,179.423965 
z"/>
<path fill="#F2DAA1" opacity="1.000000" stroke="none" 
	d="
M100.057777,166.985931 
	C100.057777,171.427872 100.057777,175.376755 100.057777,179.881943 
	C94.784912,176.993607 92.474098,172.748367 92.045624,167.462799 
	C91.541679,161.246109 93.966446,156.329178 100.057777,152.173126 
	C100.057777,157.459427 100.057777,161.976151 100.057777,166.985931 
z"/>
<path fill="#CB2C59" opacity="1.000000" stroke="none" 
	d="
M211.290405,261.512634 
	C211.107544,261.697845 210.732574,261.664734 210.160812,261.417358 
	C210.342117,261.233490 210.720215,261.263947 211.290405,261.512634 
z"/>
</svg>